<?xml version="1.0" encoding="UTF-8"?>
<svg id="Layer_2" data-name="Layer 2" xmlns="http://www.w3.org/2000/svg" viewBox="0 0 4419.91 496.45">
  <defs>
    <style>
      .cls-1 {
        fill: #b3b3b3;
        stroke-width: 0px;
      }
    </style>
  </defs>
  <g id="Layer_1-2" data-name="Layer 1">
    <path class="cls-1" d="m5.93,435.91c-2.05-11.66-3.99-22.68-5.93-33.7.89-.62,1.47-1.36,2.05-1.37,4.63-.1,8.25-1.82,10.13-6.24,3.27-7.66,9.06-9.86,16.85-8.09,1.68.38,3.44.4,5.71.65,1.53,3.82,3.05,7.74,4.65,11.62,1.53,3.69,3.27,7.3,4.69,11.03,1.76,4.6,4.69,6.86,10.16,5.49.92-1.68,1.98-3.63,3.05-5.6,5.76-3.12,8.48,1.41,11.62,5.09,3.26-.92,6.35-1.8,10.13-2.87,1.11-5.71,2.35-11.52,3.35-17.38.6-3.47,1.74-5.65,5.73-6.69,11.77-3.07,21.64.16,28.55,10.15,2.26,3.27,4.51,6.54,6.62,9.59,1.04-.09,1.69.05,1.99-.21,5.51-4.89,11.89-5.61,18.81-4.16,6.29,1.32,12.27.27,18.32-1.85,3.94-1.38,8.29-2.06,12.47-2.14,2.44-.04,5.53,1.1,7.24,2.8,5.13,5.11,11.31,4.65,17.52,4.14,3.35-.27,6.37-1.85,7.86-5.05,3.46-7.41,9.17-9.25,17.5-6.81,1.06,4.41,2.26,9.4,3.42,14.22,4.34,3.2,11.45-2.41,13.58,5.13,1.74-.24,2.98-.34,4.19-.58,6.71-1.31,12.96,1.71,15.8,7.91,1.55,3.38,2.77,6.91,4.17,10.44,5.2.95,8.63-1.21,10.32-5.57,2.7-6.97,6.86-8.01,16.14-4.74,4.21,1.48,8.17,3.66,13.85,6.27.87-1.41,1.72-3.3,3.03-4.79,4.78-5.45,10.56-7.12,16.25-2.83,7.78,5.85,16.33,6.52,25.36,7.01,10.18.55,20.33,1.7,31.24,2.65.73-1.26,1.81-3.11,2.84-4.87,4.67,0,9.18-.34,13.59.16,1.84.21,3.9,1.87,5.09,3.45,1.42,1.89,2.55,3.41,5.2,3.55,14.72.75,29.44,1.64,44.16,2.46.46.03.94-.28,2.38-.74.32-38.53.65-77.38.98-117.17,7.58.45,14.48.69,21.34,1.34,3.51.33,5.59-.86,6.95-4.82-6.19-1.3-12.32-2.6-19.3-4.06,15.06-6.11,54.25-3.5,66.77,3.96q-8.37,1.24-12.74,4.4c7.05,1.7,14.03,3.38,21.73,5.24v112.78c5.23,1.38,9.02.13,11.42-3.92,2.92-4.94,6.76-6.71,12.45-5.73,2.25.39,5.08-.27,7.1-1.41,4.19-2.38,8.41-2.44,13.01-2.08,5.41.42,10.87.1,16.81.1.19-2.42.35-4.58.53-6.75.34-4.22,1.69-5.94,5.82-6.17,3.44-.19,6.91.3,10.96.52v10.12c4.79,1.42,8.88,2.64,13.4,3.98.64-2.25,1.37-4.84,2.26-8h10.79c.57,4.29,1.18,8.89,1.87,14.06,1.81.15,3.61.3,6.03.5v-25.08c7.06-.99,13.65-.8,21.28-.5v22.17c2.26-.53,3.52-.56,4.5-1.1,7.16-3.97,14.45-2.3,21.84-.89,5.35,1.03,10.81,1.56,16.23,2.22,3.96.49,8.08.3,11.86,1.36,5.57,1.55,10.96.42,16.19-.61,3.29-.64,6.14-3.57,9.81-5.86v-107.05h61.92c.92,36.89-.41,73.95.27,111.27,10.97,1.93,20.19.33,28.03-8.09h15.84c.16-3.24.41-6.18.44-9.12.57-53.24,1.16-106.47,1.57-159.71.04-5.34,1.22-9.37,5.45-13.05,9.03-7.85,17.57-16.27,26.88-24.98,5.71,5.3,11.2,10.27,16.55,15.4,4.85,4.65,11.24,8.7,13.79,14.42,2.44,5.47.87,12.76.94,19.25.52,49.49,1.02,98.98,1.52,148.47.02,2.44,0,4.89,0,7.22,11.16,2.08,21.45,3.97,31.74,5.93,5.12.98,9.71.53,14.1-2.9,2.18-1.7,5.38-2.59,8.22-2.87,7.2-.71,14.45-.87,22.15-1.28.75-1.52,1.57-3.18,2.49-5.07,4.9.61,9.58,1.19,14.75,1.83.07,6.07,3.91,7.95,9,8.75,3.88.61,7.68,1.77,12.41,2.9v-230.48c10.46,4.89,19.82,9.27,30.06,14.06.78-18.01,1.52-35.04,2.26-52.07.59-.08,1.17-.15,1.76-.23.28,1.65.8,3.29.82,4.94.13,14.5.44,29,.1,43.49-.12,5.14,1.67,7.68,6.21,9.58,6.42,2.69,12.57,6.02,18.99,9.15.38,68.74.76,137.13,1.14,205.78,2.91.42,5.06.73,7.38,1.07.4,1.87.76,3.52,1.24,5.79,2.75.41,5.6.84,8.66,1.29,1.68-3.57,3.15-6.69,4.74-10.08,9-1.54,17.67-1.92,24.9,5.41,2.08,2.11,4.93,3.46,7.11,5.49,3.82,3.57,7.56,4.48,12.84,2.65,4.92-1.7,7.41-4.34,8.34-9.18.51-2.67,1.49-5.24,2.35-8.17h44.18c.7,2.88,1.44,5.94,2.24,9.27,7.82,1.36,4.18-6.51,8.73-9.55h31.4c.69-3.84,1.25-6.96,1.9-10.63,4.45-.41,8.79-.82,13.84-1.29.41,7.17.78,13.53,1.19,20.66,11.37-.84,21.96.12,32.48-3.29,10.02-3.25,20.4-4.1,30.51.63,1.21.56,2.84.22,4.65.32.44-2.43.82-4.57,1.33-7.43,4.87-.34,9.77-.68,15.11-1.06.83,2.59,1.56,4.86,2.44,7.58,8.6,1.29,17.2,2.73,25.86,3.74,1.64.19,4.14-.81,5.1-2.11,4.19-5.64,9.4-6.45,15.81-4.84,3.79.95,7.56.73,11.03,3.68,3.9,3.32,2.53,6.98,2.24,11.06,8.66.1,16.76-1.17,24.59-3.65,2.27-.72,3.93-3.35,6.41-5.59,3.45.12,7.45-1.39,11.32,3.11,2.06,2.4,7.49,1.92,11.1-.8,1.99-1.5,4.04-2.92,6.07-4.36,7.89-5.6,16.59-4.3,25.2-2.68,1.64.31,3.54,2.01,4.3,3.57,1.73,3.53,4.47,5.24,8.06,5.99,7.3,1.52,14.6,3.01,22.83,4.7,1.87,1.65.7,6.96,5.76,7.55,6.93.8,13.7,5.46,20.81.39,3.78-2.7,7.81-5.05,13.21-8.51,5.5,1.04,12.79,2.42,20.56,3.89v7.6c3.77-1.36,6.79-2.32,9.7-3.53,8.14-3.41,16.4-5.3,25.4-5.36,14.47-.09,28.93-1.33,43.39-2.15,2.49-.14,4.95-.68,7.43-1,6.99-.9,12.44-3.38,12.39-11.75,0-.91.57-1.83,1.01-3.14,7.25-.35,14.4-.7,22.27-1.09.52,4.8,1,9.14,1.52,13.89,2.74.3,5.12.55,7.81.84,1.12-2.53,2.1-4.74,3.1-7h14.57c.59,3.21,1.12,6.09,1.65,9.01,8.99,5.17,18.56,4.17,27.78,2.27,3.36-.69,6.39-4.45,8.9-7.39,2.22-2.59,3.5-5.99,5.4-9.39,10.06.52,20.01,1.13,29.97,1.52,4.86.19,9.75,1.3,14.23-2.62,1.43-1.26,5.13.06,8.07.21.72,2.53,1.29,4.57,2.03,7.16h23.94c4.25,0,8.52.25,12.75-.05,9.69-.7,18.88.7,27.48,5.42,3.63,1.99,7.52,2.34,11.62,1.76,4.94-.7,9.94-1.08,14.9-1.64,5.48-.62,10.51-2.53,15.7-4.45,7.38-2.73,15.32-4.67,23.15-5.33,12.91-1.09,25.95-1.58,38.84,1.11,2.15.45,4.41.36,7.07.56v-21.27h14.85c.44,6.1.83,11.52,1.25,17.32,5.04,1.08,9.37-.51,13.79-2.05,2.74-.96,5.67-1.9,8.52-1.9,8.21,0,16.42.48,25.05.79.52,3.09.96,5.7,1.5,8.88,2.85.55,5.7,1.1,9.52,1.83.35-3.99.65-7.52.98-11.26,8.47-1.57,16.47-2.7,24.21,1.81,6.51,3.79,13.57,4.57,21.44,2.9.72-1.75,1.49-3.82,2.39-5.83,5.88-13.09,19.17-21.12,33.11-20.04,14.53,1.13,26.32,10.99,30.15,25.22q2.1,7.8,10.1,6.53c5.43-.85,10.94-1.35,16.28-2.58,4.23-.98,7.78-.33,11.39,1.88,3.16,1.93,6.56,3.45,10.5,5.49,1.4-3.95,2.59-7.35,4.05-11.48,3.61,0,7.3-.06,10.98.03,1.21.03,2.81.05,3.56.77,8.09,7.83,16.37,3.47,24.07-.11,6.97-3.24,13.12-8.47,21.58-4.87,1.22-3.37,2.15-5.91,3.24-8.91,5.83-.35,11.73-.7,17.92-1.07,1.32,3.92,2.5,7.4,3.95,11.69,5.9-.4,11.85-.46,17.7-1.28,7.45-1.04,14.26-.26,20.79,3.86,4.42,2.79,9.21,5.07,14.04,7.09,10.55,4.42,19.89,10.37,26.96,19.52,2.16,2.8,4.92,3.92,8.48,3.68,3.48-.23,7,.04,10.5-.07,6.81-.22,7.97-1.56,7.9-8.65-.01-.98.08-1.95.17-3.73,11.6.05,22.78,2.58,34.43,3.63.55,2.45,1.08,4.79,1.66,7.39,5.49,1.75,10.94,3.19,16.76,1.48,1.43-.42,3-.37,4.41-.83,10.95-3.51,21.67-1.68,32.67,1.17,1.37,3.38,2.77,6.81,4.3,10.59,5.64-1.43,9.4-4.44,11.17-9.88,1.02-3.14,2.72-5.43,7.43-3.62,1.09,5.51,2.28,11.52,3.62,18.33,2.83-1.21,5.31-2.18,7.72-3.31,8.36-3.93,16.6-8,25.76-10.04,3.98-.89,7.3-1.09,10.56,1.38,3.24,2.46,6.16,2.23,9.47-.26,4.18-3.15,8.84-5.66,13.14-8.66,3.42-2.38,6.99-3.63,11.66-2.8.08,5.07,2.52,8.26,7.85,8.81,3.43.35,5.13,2.6,6.13,5.73.75,2.37,1.82,4.65,2.81,6.95.95,2.22,1.4,5.5,4.69,4.73,1.77-.42,3.54-2.4,4.57-4.11,2.41-4.04,4.38-8.35,6.62-12.75,12.62.66,25,1.3,38.09,1.98.49-11.1,3.72-21.12,0-32.34,5.78-.9,11.85-.91,18.49.28-3.98,8.64.45,15.67,1.58,24.03,7-2.29,13.8-3.84,20-6.69,9.82-4.51,19.98-5.91,30.59-5.66,4.2.1,8.41-.41,13.57-.69,0-6.9-.06-13.3.02-19.7.05-3.98,4.57-10.05,8.19-10.24,2.19-.11,5.71.77,6.49,2.29,2.63,5.2,6.83,2.74,10.49,3.08,3.63.34,5.4-1.79,6.82-4.7.86-1.77,2.05-3.37,3.37-5.5,3.9.39,7.82.78,12.57,1.25.58,4.35,1.16,8.68,1.86,13.9,4.62,0,9.07.23,13.48-.06,6.23-.4,12.05-.19,15.23,6.1,5.37-.12,9.75-1.62,13.57-4.73,4.25-3.45.44-8.72,3.3-13.3h27.13v38.37c5.95,3.26,10.98,3.68,16.13.27,1.65-1.1,3.47-2.12,5.36-2.65,8.83-2.46,12.7-8.77,14.16-17.27.72-4.16,1.91-8.23,3.07-13.1,9.04-1.74,18.21-3.5,28.25-5.43.48,5.64.87,10.27,1.31,15.39,6.77.95,13.32,1.72,19.79-.99.46-.19.92-.43,1.4-.53,16.13-3.52,25.14-16.35,35.51-27.34,1.19-1.26,1.55-3.58,1.7-5.46.27-3.19.07-6.41.07-9.87,2.1-.2,3.5-.33,5.36-.5.69,3.4,1.32,6.5,2.04,10.06,1.98-.55,3.57-1,5.52-1.55.58-5.95,1.16-11.85,1.82-18.5,10.97.73,21.49,1.44,32.44,2.17-.63,9.12-1.19,17.27-1.81,26.14,10.95,3.18,21.62,6.28,33.33,9.68.42-12.55.8-24.14,1.22-36.6,26.57-.5,52.62.36,79.48.8-.25-5.4-.46-10.04-.67-14.68-.22-4.74-.62-9.49-.61-14.23.02-5.9,3.4-8.58,9.01-7.5,1.23.23,2.44.54,3.66.79q7.23,1.46,10.38,7.76c4.88,2,7.34-.84,9.02-5.01,3.52.22,6.72.41,9.87.61,1.57,2.95,2.96,5.55,4.3,8.06,3.62.1,5.41-1.15,5.39-4.75-.02-4.94.26-9.88.44-15.68,6.17.28,11.58.51,17,.79,2,.1,4.02.6,5.98.42,7.4-.72,13.32,1.04,15.73,9.91,5.26-3.49,9.9-6.3,14.19-9.57,1.39-1.06,2.24-3.23,2.69-5.05,1.13-4.6,1.84-9.31,2.81-13.95,1.52-7.27,6.29-11.5,13.86-11.92,4.99-.28,10.01-.36,14.99-.03,6.2.41,11.95-.77,17.23-3.87,4.61-2.71,9.38-2.78,14.46-2.08,5.91.81,12.41,2.89,17.68,1.28,4.98-1.52,8.73-7.11,12.98-10.95,2.96-2.68,6.19-5.17,8.7-8.24,4.78-5.84,10.64-7.89,18.48-6.22,1.02,1.9,2.27,4.22,4.05,7.52,5.16-5.31,10.22-10.04,14.7-15.26,4.22-4.91,8.91-7.12,15.57-6.77,8.71.46,17.48-.16,26.22-.49,2.19-.08,4.64-.32,6.5-1.34,8.78-4.81,18.37-6.14,28.42-6.85.69-2.16,1.34-4.22,2.16-6.8,3.99,1.38,8.14,3.91,12.8-.23v-51.46c19.26-8.52,17.78-7.82,15.58-26.03-.38-3.18-.91-6.35-1.46-10.08,3.32-.39,6.2-.72,10.11-1.17,1.11-13.2,2.23-26.6,3.35-40.01.27,0,.54,0,.81,0,1.08,13.25,2.16,26.51,3.25,39.99,3.57.4,6.7.76,10.15,1.15-.6,7.1-1.18,13.79-1.73,20.47-.12,1.49-.22,2.99-.28,4.49-.2,4.84,1.45,7.78,4.55,8.18,2.83.36,4.67-2.34,4.52-8.01-.18-6.98-.88-13.95-1.4-20.92-.22-2.92-.56-5.84-.9-9.24,3.28-.28,5.93-.51,9.34-.8,1.92-13.16,2.55-26.45,4.34-39.84,1.08,13.14,2.16,26.28,3.27,39.79,3.61.3,6.74.56,10.29.86,0,3.11,0,5.79,0,8.47-.02,4.99-.27,10,0,14.98.26,4.71,2.4,7.08,6.88,7.19,24.98.61,49.96,1.02,74.95,1.48.2,0,.41-.27,1.25-.88-.8-6.64-1.64-13.68-2.53-21.08,3.53-.51,6.41-.93,10.03-1.46.98-12.55,1.94-24.96,2.91-37.36.5-.03.99-.05,1.49-.08,1.15,12.13,1.85,24.31,2.82,36.92,3.21.47,6.29.93,9.86,1.46-.42,7.95-.82,15.59-1.26,23.93h9.66c3.66-9.59-1-18.59-.63-28.14,3.01-.19,5.67-.35,9.28-.58,1.04-12.61,2.08-25.28,3.12-37.96.41-.03.81-.05,1.22-.08,1.05,12.49,2.1,24.99,3.19,37.94,3.18.47,6.25.93,9.84,1.46-4.51,30.59-1.76,60.96-2.61,92.3,10.37,0,19.93-.98,29.18.28,9.01,1.22,17.71,4.73,27.76,7.58,0-4.66.17-8.33-.05-11.98-.2-3.29.83-5.68,3.46-7.74,4.12-3.24,7.93-6.88,12.01-10.18,4.7-3.81,8.78-4.08,13.41-.25,3.94,3.25,8.11,4.18,13.08,4.26,17.72.26,35.43.92,53.8,1.44.34,4.71.65,9.06,1.02,14.23h34.67v-4.48c-3.37-.68-6.69-1.34-9.95-2-.64-3.1-.07-4.89,2.96-5.15,2.99-.25,5.98-.72,8.97-.7,4.47.04,7.12-1.97,7.95-6.28,1.41-7.35,2.84-14.7,4.04-22.08,5.85-36.13,6.34-72.65,7.48-109.11.11-3.41.42-6.79-2.03-10-1.23-1.61-.68-4.59-.87-6.38,1.84.51,3.62,1.61,4.65,1.12,1.18-.56,2.34-2.51,2.37-3.89.15-6.49-.05-12.99-.2-19.48-.07-2.99-.36-5.98-.44-8.98-.04-1.23-.24-3.24.38-3.6,6.33-3.68,3.37-9.73,3.8-14.76.51-5.96.18-11.99.27-17.99.03-2.08.18-4.19,3.98-3.53.16,1.93.46,4.03.5,6.14.13,6.5-.03,13.01.32,19.49.19,3.45-1.12,7.45,3.25,9.93,1.01.58.8,3.67.81,5.61.07,9.98.03,19.96.03,30.15,2.69,2.03,4.86,1.8,7.43-1.1-.82,2.87-1.76,5.72-2.43,8.63-.56,2.39-1.19,4.86-1.14,7.27.72,31.48,1.23,62.98,5.11,94.29,1.35,10.91,3.03,21.77,4.67,32.64.33,2.2,1.12,4.35,1.8,6.49,1.11,3.47,3.36,5.31,7.19,5.35,3.24.03,6.47.51,9.71.79,2.49.21,3.5,1.59,3.05,4.87-2.97.69-6.24,1.45-9.51,2.21-1.27,6.31,3.77,7.26,7.96,9.04,1.33,8.39,5.33,15.5,9.71,22.55,2.76,4.45,6.26,6.01,11.21,5.6,5.73-.47,11.48-.7,17.22-1.03,2.22-.13,4.43-.25,6.95-.39,1.64,3.85,3.18,7.47,4.74,11.13,5.87,1.55,11.38,1.93,16.71-1.43,7.39-4.66,15.2-2.92,20.9,1.91,8.89,7.53,18.38,6.3,28.23,4.82,5.67-.85,11.3-2.11,16.85-3.54,7.22-1.86,14.3-1.72,21.45.25,4.2,1.16,9.11.8,10.96,6.26.29.86,1.95,1.5,3.1,1.79,6.03,1.52,12.11,2.89,17.88,4.24,6.24-6.08,13.19-7.29,21.2-2.18,7.79,4.97,15.94,7.97,24.93,9.48,2.14.36,4.37,2.19,5.88,3.93,5.84,6.73,9.34,6.97,15.58.57,3.92.16,6.43,1.5,8.71,5.44,5.76,9.95,9.34,8.88,16.97,5.38,2.95-1.36,6.64-1.27,10.01-1.48.97-.06,2.66.94,2.92,1.79,1.89,6.18,7.33,7.27,12.29,7.99,12.83,1.85,25.74,3.49,38.67,4.33,8.08.53,15.8,1.74,23.37,4.55,5.83,2.17,11.81,3.91,17.74,5.86v19.73c-14.14-1.11-27.56-1.73-40.85-3.36-9.84-1.21-19.44-3.36-28.85-7.37-7.32-3.12-16.11-2.87-24.27-3.94-8.92-1.18-17.88-2-26.77-3.35-2.21-.34-4.89-1.62-6.13-3.34-1.99-2.78-4.45-3.59-7.48-4.23-20.76-4.39-41.49-8.99-62.27-13.31-2.5-.52-5.6-.4-7.84.65-4.46,2.09-8.44,1.65-12.93.2-14.5-4.67-29.08-9.13-43.71-13.35-4.5-1.3-9.26-2.01-13.95-2.26-22.21-1.2-44.44-2.12-66.66-3.21-1.7-.08-3.75-.16-5.02-1.09-6.79-4.94-14.89-5.29-22.62-7.12-11.65-2.75-23.17-6.04-34.71-9.22-4.13-1.14-8.03-1.58-12.44-.82-8.92,1.54-17.96,1.07-26.68-1.67-11.67-3.67-23.25-7.66-34.9-11.39-2.82-.9-5.78-1.8-8.7-1.88-22.26-.6-44.47.29-66.64,2.5-10.44,1.04-20.93,2.56-31.37,2.34-10.42-.22-20.79-2.33-31.18-3.65-5.95-.76-11.93-1.36-17.82-2.44-10.54-1.94-21.03-4.19-31.54-6.29-3.06-.61-4.42-2.37-5.12-5.51-3.21-14.38-6.7-28.69-10.13-43.02-.46-1.92-1.09-3.81-1.81-6.29-5.73-.53-11.4-1.38-17.08-1.52-29.23-.75-58.47-1.31-87.71-1.96-3.97-.09-7.36.3-11.1,2.78-4.18,2.78-9.8,3.4-15.51,5.18-2.73,14.43-5.5,29.09-8.35,44.16-1.7.72-3.45,1.58-5.29,2.19-5.21,1.73-10.56,3.1-15.67,5.09-10.19,3.98-20.49,6.08-31.43,3.8-5.32-1.11-10.26.19-15.13,2.68-27.13,13.87-54.39,27.51-81.53,41.36-16.15,8.24-16.09,8.29-34.11,6.07-6.69-.83-13.45-1.18-20.13-2.06-9.96-1.31-19.32,1.97-28.87,3.57-10.22,1.71-10.47,1.94-12.1,12.18-.88,5.53-3.8,8.3-8.37,11.21-15.68,9.95-33.7,12.02-51.06,16.36-3.85.96-7.73,1.79-11.79,2.73-.71,5-1.38,9.66-2.14,14.99-8.31,4.41-16.81,9.08-25.48,13.42-1.89.94-4.37.91-6.58.97-21.24.53-42.48.99-63.72,1.45q-12.56.27-17.75,12.01c-3.31,7.5-6.66,14.99-10.16,22.86-14.8-1.01-29.23-1.99-43.65-2.99-7.73-.54-15.45-1.33-23.18-1.58-2.62-.08-5.39.85-7.89,1.84-16.27,6.41-32.51,12.87-48.69,19.51-4.73,1.94-9.46,2.88-14.57,2.75-8.47-.21-16.94-.06-25.72-.06-1.4,6-5.88,7.77-10.73,9.4-8.05,2.69-16.05,5.57-23.93,8.74-5.03,2.03-10.03,2.64-15.37,2.02-11.17-1.3-22.35-2.4-33.54-3.54-2.98-.3-5.97-.61-8.96-.61-34.5-.04-69-.09-103.49.07-3.89.02-7.89.91-11.63,2.07-7.86,2.44-15.5,5.66-23.41,7.93-5.19,1.49-8.48,3.83-7.91,10.25-2.8.15-5.24.16-7.66.42-11.17,1.16-22.35,2.25-33.49,3.66-3.59.45-7.32.61-10.38,3.54-1.39,1.32-4.22,1.24-6.42,1.57-10.13,1.49-20.29,2.81-30.41,4.36-5.79.89-11.38,1.04-16.79-1.74-8.85-4.53-19.16-5.23-27.75-10.71-2.13-1.36-5.83-.86-8.67-.39-14.78,2.47-29.51,5.22-44.26,7.87-.74.13-1.46.34-2.2.47-9.53,1.67-18.38,1.38-24.52-7.81-1.08-1.62-2.97-2.69-4.25-4.21-2-2.4-4.42-3.25-7.32-2.3-11.85,3.89-23.62,2.62-35.43-.22-3.64-.87-7.47-.99-11.04-2.04-4.21-1.23-7.62-.76-11.11,2.07-1.55,1.26-4.13,1.71-6.25,1.75-9.75.18-19.5-.03-29.25.13-3.52.06-6.32-.83-8.48-3.7-9.79-12.95-23.14-20.91-37.73-27.34-4.72-2.08-9.07-3.37-14.32-2.77-24.57,2.77-49.19,5.1-73.77,7.84-6.18.69-12.32,2.08-18.36,3.61-4.98,1.26-9.82,1.37-14.82.35-5.38-1.1-10.79-2.17-16.23-2.86-3.4-.43-7.01-.7-10.32-.03-12.63,2.58-25.28,2.44-38.03,1.42-18.93-1.52-37.89-2.67-56.83-4.1-5.43-.41-10.6-.75-12.7,6.04-13.52-1.75-26.62-3.44-39.73-5.15-5.7-.74-11.39-1.52-17.08-2.3-4.73-.65-9.32-1.19-13.6,2.09-1.38,1.06-3.79,1.03-5.74,1.04-7.75.07-15.51.21-23.24-.15-5.44-.26-10.84-1.39-16.27-1.95-16.71-1.74-33.33-2.79-49.05,5.23-2.59,1.32-5.62,2.12-8.53,2.43-19.4,2.07-38.82,2.74-58.37,2.21-23.23-.63-46.49-.16-69.74-.18-3,0-6.06.32-8.99-.14-7.52-1.17-14.18.04-20.41,4.79-2.13,1.62-5.59,1.98-8.46,2.07-6.74.21-13.49-.04-20.24-.23-2.48-.07-5.09-.09-7.41-.84-15.38-4.99-31.51-5.11-47.3-7.39-3.08-.44-6.39.46-9.55.98-6.39,1.06-12.7,2.66-19.12,3.36-19.86,2.15-39.72,4.76-59.64,5.73-23.93,1.17-47.93,1.06-71.9,1.02-6.92-.01-13.86-1.55-20.74-2.68-1.8-.3-4.54-1.37-4.92-2.66-1.18-4-4.4-4.46-7.4-5.41-7.14-2.26-14.38-4.22-21.47-6.65-3.44-1.18-6.23-1.22-8.77,1.63-2.88,3.22-6.57,4.12-10.81,3.95-12.03-.49-23.8,1.05-35.68,3.29-12.22,2.3-24.82,2.68-37.29,3.43-2.74.17-5.97-1.04-8.33-2.59-11.77-7.73-24.64-10.37-38.51-9.6-5.98.33-12,.06-18,.05-3.97,0-7.61-.58-11.5-2.18-3.51-1.45-8.53-1.07-12.27.26-6.76,2.39-13.53,3.28-20.57,3.39-32.99.53-65.98.82-98.95,1.87-8.86.28-17.75,2.49-26.44,4.61-8.87,2.17-17.5,2.85-26.64,1.67-13.07-1.69-26.29-2.29-39.46-3.07-18.31-1.08-35.87-6.51-53.9-8.96-16.11-2.19-31.94-5.29-47.59-9.55-2.44-.66-5.61-.57-7.9.42-17.66,7.64-36.51,8.42-55.17,8.77-11.62.22-23.3-2.49-34.95-3.85-12.15-1.42-24.28-3.08-36.47-4.06-5.14-.41-10.48.18-15.58,1.13-13.01,2.42-25.92,5.34-38.9,7.96-3.05.61-6.27,2.05-9.06-1.03-.49-.54-1.92-.33-2.91-.32-11.99.21-24.15-.7-35.94.98-14.34,2.04-28.74,2.62-43.09,4.07-3.34.34-6.95-.13-10.19-1.06-6.71-1.93-13.29-4.34-19.87-6.72-2.98-1.08-5.71-.97-8.69.09-5.87,2.09-11.86,3.82-17.78,5.76-15.14,4.95-30.16,1.54-45.18-.68-4.44-.66-9.13-.97-13.16-2.7-12.93-5.54-26.45-4.44-39.88-4.26-1.92.03-4.13,1.34-5.68,2.67-4.92,4.23-9.65,8.69-14.34,13.17-2.34,2.23-4.91,3-8.14,2.87-28.97-1.24-57.95-2.07-86.9-3.72-6.81-.39-13.55-3.17-20.18-5.3-4.05-1.3-7.49-1.37-11.41.68-2.47,1.29-5.73,1.48-8.62,1.43-5.49-.1-11.23-1.97-16.4-.89-12.01,2.51-23.05-1.89-34.52-3.13-6.43-.69-12.9-1.44-19.36-1.47-28.25-.12-56.5.06-84.74-.03-3.14-.01-6.86-.18-9.33-1.79-13.46-8.74-28.72-11.02-44.07-13.18-7.91-1.11-15.89-1.98-23.69-3.69-9.46-2.07-18.81-1.6-28.27-.49-12.41,1.46-24.86,2.57-37.23,4.23-4.81.65-8.9.01-12.51-3.16-3.76-3.3-7.75-3.89-12.45-1.91-14.86,6.27-30.42,6.95-46.31,6.02-15.19-.89-30.42-1.03-46.57-1.53Z"/>
  </g>
</svg>